<svg version="1.2" baseProfile="tiny-ps" xmlns="http://www.w3.org/2000/svg" viewBox="0 0 193 45" width="193" height="45">
	<title>logo1-svg</title>
	<style>
		tspan { white-space:pre }
		.shp0 { display: none;fill: #ffffff } 
		.shp1 { fill: #ffffff } 
	</style>
	<g id="Layer">
		<path id="Layer" fill-rule="evenodd" class="shp0" d="M0 -73L192.74 -73L192.74 119.74L0 119.74L0 -73Z" />
		<path id="Layer" fill-rule="evenodd" class="shp1" d="M2.79 43.2L2.79 39.3L4.96 39.3C6.04 39.3 8.21 39.08 8.21 36.48L8.21 13.05C8.21 11.64 8.11 8.28 5.39 8.28L2.9 8.28L5.72 3.29L172.57 3.29L172.57 8.28L19.06 8.28C17.65 8.28 15.81 8.61 15.81 11.43L15.81 18.8C16.13 19.67 17.43 19.99 18.09 19.99C18.74 19.99 21.01 19.88 21.01 16.31L24.27 16.31L24.27 28.34L21.01 28.34C21.01 27.26 19.82 25.44 18.19 25.31C16.89 25.2 15.81 25.63 15.81 27.37L15.81 36.48C15.81 37.46 17 39.3 19.82 39.3L21.77 39.3L21.77 43.2L2.79 43.2L2.79 43.2Z" />
		<path id="Layer" fill-rule="evenodd" class="shp1" d="M99.08 13.92C99.08 14.79 100.16 15.66 100.81 15.87C101.57 15.33 105.59 13.05 108.73 13.05C111.88 13.05 113.5 14.68 113.5 17.17L113.5 29.1L105.91 29.1L105.91 19.89C105.91 18.69 105.59 17.82 104.5 17.72C103.42 17.61 100.6 19.89 99.84 20.97L99.84 37.46C99.84 38.97 101.36 40.06 102.66 40.06L102.66 43.2L89.43 43.2L89.43 39.95C90.73 39.95 92.14 39.52 92.25 37.56L92.25 19.23C92.25 18.69 91.38 17.17 89.43 17.17L89.43 13.92L99.08 13.92ZM189.88 17.17C188.47 17.17 187.06 18.15 187.06 19.45L187.06 37.46C187.06 38.97 188.58 40.06 189.88 40.06L189.88 43.2L176.65 43.2L176.65 39.95C177.95 39.95 179.36 39.52 179.47 37.56L179.47 19.24C179.47 18.69 178.6 17.17 176.65 17.17L176.65 13.92L189.88 13.92L189.88 17.17ZM69.8 13.92C69.8 14.79 70.88 15.66 71.53 15.87C72.29 15.33 76.3 13.05 79.45 13.05C82.59 13.05 84.22 14.68 84.22 17.17L84.22 29.1L76.63 29.1L76.63 19.89C76.63 18.69 76.3 17.82 75.22 17.72C74.14 17.61 71.31 19.89 70.56 20.97L70.56 37.46C70.56 38.97 72.08 40.06 73.38 40.06L73.38 43.2L60.15 43.2L60.15 39.95C61.45 39.95 62.86 39.52 62.97 37.56L62.97 19.23C62.97 18.69 62.1 17.17 60.15 17.17L60.15 13.92L69.8 13.92ZM159.51 15.87C160.27 15.33 164.28 13.05 167.43 13.05C170.57 13.05 172.2 14.68 172.2 17.17L172.2 29.1L164.61 29.1L164.61 19.89C164.61 18.69 164.28 17.82 163.2 17.72C162.11 17.61 159.29 19.89 158.53 20.97L158.53 37.46C158.53 38.97 160.05 40.06 161.35 40.06L161.35 43.2L148.12 43.2L148.12 39.95C149.42 39.95 150.83 39.52 150.94 37.56L150.94 19.23C150.94 18.69 150.07 17.17 148.12 17.17L148.12 13.92L157.77 13.92C157.77 14.79 158.86 15.66 159.51 15.87ZM54.42 34.09C54.42 34.09 55.07 39.3 51.92 41.58C48.78 43.85 44.44 43.75 43.14 43.75C41.84 43.75 35.55 43.74 33.49 41.68C31.43 39.62 30.77 37.34 30.77 34.09L30.77 21.84C30.77 19.67 31.43 16.74 33.16 15.33C34.9 13.92 36.85 13.05 42.92 13.05C45.31 13.05 50.62 13.49 52.14 15C53.66 16.52 54.42 17.61 54.42 21.19L54.42 29.1L39.56 29.1C38.8 29.1 38.37 29.86 38.37 30.41L38.37 36.59C38.37 38.32 39.45 40.71 43.03 40.71C46.61 40.71 46.83 38.21 46.83 37.02L46.83 34.09L54.42 34.09ZM38.37 24.66C38.37 25.31 39.02 25.85 39.67 25.85L45.52 25.85C46.28 25.85 46.83 25.2 46.83 24.55L46.83 20.64C46.83 19.13 46.5 16.31 42.7 16.31C38.91 16.31 38.37 18.91 38.37 20.64L38.37 24.66ZM141.4 37.45C141.4 38.97 142.92 40.06 144.22 40.06L144.22 43.2L129.03 43.2C122.64 43.2 121.98 42.12 120.58 41.14C119.16 40.17 117.97 38.32 117.97 33.55C117.97 28.78 119.49 27.91 121.23 26.61C122.96 25.31 132.83 25.09 132.83 25.09C133.37 25.09 133.81 24.44 133.81 24.01L133.81 19.34C133.81 18.42 133.51 17.6 132.78 16.96C130.77 15.22 128.17 16.3 127.19 17.28C126.21 18.26 125.73 21.95 125.73 21.95L118.62 21.95C118.62 20.86 118.19 18.15 120.68 15.33C123.18 12.51 128.6 12.51 130.23 12.51C131.86 12.51 136.09 12.4 138.69 14.25C141.29 16.09 141.4 18.69 141.4 21.19L141.4 37.45ZM133.81 30.46C133.81 29.54 133.48 28.13 131.8 28.13C130.12 28.13 125.89 28.02 125.89 32.08L125.89 36.26C125.89 37.67 126.65 39.95 129.31 39.95L133.05 39.95C133.37 39.95 133.81 39.57 133.81 39.3L133.81 30.46ZM175.89 5.65C175.89 4.22 178.97 3.07 182.77 3.07C186.56 3.07 189.64 4.23 189.64 5.65C189.64 7.07 186.56 8.23 182.77 8.23C178.97 8.23 175.89 7.07 175.89 5.65Z" />
	</g>
</svg>